<svg width="2045" height="2045" viewBox="0 0 2045 2045" fill="none" xmlns="http://www.w3.org/2000/svg">
<rect width="2045" height="2045" rx="83.8788" fill="url(#paint0_linear_331_5483)"/>
<g clip-path="url(#clip0_331_5483)">
<path d="M1785 1022.43L1470.68 757.394V938.902H1321.99C1304.88 786.563 1242.67 642.802 1143.34 526.039C1025.79 388.46 865.385 294.407 687.919 259L654.465 425.491C704.964 435.655 754.051 451.88 800.66 473.814L260 1021.76L800.103 1571.48C753.551 1593.29 704.54 1609.4 654.13 1619.47L687.287 1785.96C864.864 1750.64 1025.4 1656.63 1143.08 1519.04C1242.52 1402.23 1304.79 1258.39 1321.92 1105.95H1470.6V1287.38L1785 1022.43ZM946.299 567.931C970.523 588.841 993.103 611.583 1013.84 635.955C1087.09 722.034 1134.56 827.043 1150.78 938.902H580.419L946.299 567.931ZM1013.69 1409.05C992.843 1433.57 970.111 1456.42 945.704 1477.4L580.753 1105.95H1150.78C1134.55 1217.88 1087.03 1322.95 1013.69 1409.05Z" fill="white"/>
</g>
<defs>
<linearGradient id="paint0_linear_331_5483" x1="2043" y1="3.50013" x2="1.49998" y2="2002" gradientUnits="userSpaceOnUse">
<stop stop-color="#247FC1"/>
<stop offset="1" stop-color="#2463C1"/>
</linearGradient>
<clipPath id="clip0_331_5483">
<rect width="1525" height="1527" fill="white" transform="translate(260 259)"/>
</clipPath>
</defs>
</svg>
